<svg xmlns="http://www.w3.org/2000/svg" width="30" height="30" viewBox="0 0 30 30" fill="none">
<path d="M4.04199 6.58301C4.04199 5.85366 4.33172 5.15419 4.84745 4.63846C5.36317 4.12274 6.06265 3.83301 6.79199 3.83301H9.54199C10.2713 3.83301 10.9708 4.12274 11.4865 4.63846C12.0023 5.15419 12.292 5.85366 12.292 6.58301V9.33301C12.292 10.0624 12.0023 10.7618 11.4865 11.2776C10.9708 11.7933 10.2713 12.083 9.54199 12.083H6.79199C6.06265 12.083 5.36317 11.7933 4.84745 11.2776C4.33172 10.7618 4.04199 10.0624 4.04199 9.33301V6.58301ZM17.792 6.58301C17.792 5.85366 18.0817 5.15419 18.5974 4.63846C19.1132 4.12274 19.8126 3.83301 20.542 3.83301H23.292C24.0213 3.83301 24.7208 4.12274 25.2365 4.63846C25.7523 5.15419 26.042 5.85366 26.042 6.58301V9.33301C26.042 10.0624 25.7523 10.7618 25.2365 11.2776C24.7208 11.7933 24.0213 12.083 23.292 12.083H20.542C19.8126 12.083 19.1132 11.7933 18.5974 11.2776C18.0817 10.7618 17.792 10.0624 17.792 9.33301V6.58301ZM4.04199 20.333C4.04199 19.6037 4.33172 18.9042 4.84745 18.3885C5.36317 17.8727 6.06265 17.583 6.79199 17.583H9.54199C10.2713 17.583 10.9708 17.8727 11.4865 18.3885C12.0023 18.9042 12.292 19.6037 12.292 20.333V23.083C12.292 23.8124 12.0023 24.5118 11.4865 25.0276C10.9708 25.5433 10.2713 25.833 9.54199 25.833H6.79199C6.06265 25.833 5.36317 25.5433 4.84745 25.0276C4.33172 24.5118 4.04199 23.8124 4.04199 23.083V20.333ZM17.792 20.333C17.792 19.6037 18.0817 18.9042 18.5974 18.3885C19.1132 17.8727 19.8126 17.583 20.542 17.583H23.292C24.0213 17.583 24.7208 17.8727 25.2365 18.3885C25.7523 18.9042 26.042 19.6037 26.042 20.333V23.083C26.042 23.8124 25.7523 24.5118 25.2365 25.0276C24.7208 25.5433 24.0213 25.833 23.292 25.833H20.542C19.8126 25.833 19.1132 25.5433 18.5974 25.0276C18.0817 24.5118 17.792 23.8124 17.792 23.083V20.333Z" stroke="#172B4D" stroke-opacity="0.6" stroke-width="1.83333" stroke-linecap="round" stroke-linejoin="round"/>
</svg>