<svg width="195" height="41" viewBox="0 0 195 41" fill="none" xmlns="http://www.w3.org/2000/svg">
<g id="Component 7">
<g id="Group 1">
<path id="Path 1" d="M12.5394 23.9235H6.19308L5.22894 26.8503H0L6.52399 8.9429H12.2543L18.7526 26.8503H13.4964L12.5394 23.9235ZM9.36625 14.3251L7.46377 20.1114H11.296L9.36625 14.3251Z" fill="#172B4D"/>
<path id="Path 2" d="M20.3799 8.05981H25.3539V26.8554H20.3799V8.05981Z" fill="#172B4D"/>
<path id="Path 3" d="M33.449 12.4345C34.2768 12.3849 35.1026 12.5591 35.8399 12.9387C36.5772 13.3183 37.1988 13.8894 37.6393 14.592V12.6035H42.6132V26.6902C42.6132 30.4966 40.5331 33.8531 35.4045 33.8531C30.9634 33.8531 28.2214 31.6197 27.8662 28.0927H32.7685C32.9719 29.0052 33.8343 29.5382 35.1036 29.5382C36.4989 29.5382 37.6422 28.905 37.6422 26.6959V24.8679C37.2017 25.5702 36.5803 26.141 35.8433 26.5206C35.1063 26.9002 34.2808 27.0745 33.4533 27.0254C30.0781 27.0254 27.3877 24.2591 27.3877 19.7192C27.3877 15.1793 30.0724 12.4345 33.449 12.4345ZM35.0477 16.7738C34.6768 16.7745 34.3103 16.8541 33.9726 17.0073C33.6348 17.1604 33.3335 17.3837 33.0887 17.6623C32.8438 17.9409 32.6611 18.2684 32.5526 18.623C32.444 18.9776 32.4121 19.3513 32.459 19.7192C32.5246 20.2169 32.7322 20.6852 33.057 21.068C33.3818 21.4507 33.81 21.7318 34.2904 21.8775C34.7708 22.0231 35.283 22.0273 35.7657 21.8894C36.2484 21.7515 36.6811 21.4774 37.012 21.1C37.343 20.7225 37.5581 20.2577 37.6317 19.7611C37.7053 19.2645 37.6342 18.7572 37.4269 18.3C37.2197 17.8428 36.885 17.455 36.4631 17.183C36.0411 16.9111 35.5497 16.7665 35.0477 16.7666V16.7738Z" fill="#172B4D"/>
<path id="Path 4" d="M52.0772 27.0183C50.6426 26.9812 49.2507 26.5219 48.0756 25.6979C46.9006 24.8739 45.9945 23.7218 45.4707 22.3857C44.947 21.0495 44.8287 19.5886 45.1308 18.1856C45.4328 16.7826 46.1418 15.4997 47.169 14.4975C48.1962 13.4952 49.4961 12.8181 50.9061 12.5506C52.3161 12.2831 53.7737 12.4373 55.0966 12.9938C56.4194 13.5503 57.5489 14.4844 58.3437 15.6793C59.1386 16.8743 59.5635 18.277 59.5653 19.7122C59.6114 20.6995 59.4477 21.6853 59.0851 22.6048C58.7226 23.5243 58.1695 24.3566 57.462 25.0468C56.7546 25.7371 55.9089 26.2696 54.9808 26.6094C54.0527 26.9493 53.0631 27.0886 52.0772 27.0183ZM52.0772 22.7034C53.3465 22.7034 54.5126 21.7651 54.5126 19.7093C54.5126 17.6779 53.3666 16.7395 52.1102 16.7395C50.8538 16.7395 49.7235 17.6779 49.7235 19.7093C49.7163 21.7651 50.7822 22.7034 52.0772 22.7034Z" fill="#172B4D"/>
<path id="Path 5" d="M74.4603 12.7342L67.0252 22.8095H74.4603V26.8566H61.4409V23.066L68.7987 12.9662H61.4409V8.95499H74.4603V12.7342Z" fill="#172B4D"/>
<path id="Path 6" d="M83.5684 27.0187C81.6509 26.9919 79.821 26.2113 78.4744 24.8458C77.1279 23.4803 76.373 21.6396 76.373 19.7219C76.373 17.8041 77.1279 15.9635 78.4744 14.598C79.821 13.2324 81.6509 12.4518 83.5684 12.425C84.5243 12.3591 85.4831 12.4981 86.381 12.8325C87.2788 13.1669 88.0949 13.689 88.7748 14.364C89.4548 15.0391 89.9828 15.8514 90.3236 16.7468C90.6645 17.6423 90.8103 18.6001 90.7514 19.5564C90.7515 19.9463 90.7261 20.3359 90.6755 20.7225H81.2591C81.3608 22.3743 82.249 23.0319 83.3622 23.0319C83.7363 23.0457 84.1058 22.9465 84.4227 22.7472C84.7396 22.5479 84.9891 22.2577 85.1386 21.9144H90.4391C90.0607 23.4284 89.1692 24.7644 87.9165 25.6951C86.6638 26.6257 85.1272 27.0935 83.5684 27.0187ZM81.2849 18.3086H85.6715C85.6729 18.0362 85.6172 17.7665 85.5081 17.5169C85.3989 17.2673 85.2387 17.0434 85.0377 16.8594C84.8368 16.6755 84.5996 16.5357 84.3414 16.449C84.0831 16.3623 83.8096 16.3306 83.5383 16.356C82.9826 16.3271 82.4374 16.515 82.0174 16.8799C81.5973 17.2449 81.3352 17.7586 81.2863 18.3129L81.2849 18.3086Z" fill="#172B4D"/>
<path id="Path 7" d="M102.48 19.203C102.508 18.8756 102.468 18.546 102.362 18.2351C102.256 17.9241 102.086 17.6386 101.864 17.3966C101.642 17.1546 101.372 16.9614 101.071 16.8292C100.77 16.6971 100.445 16.6288 100.117 16.6288C99.7882 16.6288 99.4631 16.6971 99.1623 16.8292C98.8615 16.9614 98.5915 17.1546 98.3693 17.3966C98.147 17.6386 97.9775 17.9241 97.8714 18.2351C97.7653 18.546 97.725 18.8756 97.7529 19.203V26.8501H92.7847V12.603H97.7586V14.6402C98.2488 13.9517 98.9013 13.3947 99.6582 13.0186C100.415 12.6425 101.253 12.4589 102.098 12.4841C105.402 12.4841 107.453 14.8193 107.453 18.5497V26.8587H102.479L102.48 19.203Z" fill="#172B4D"/>
<path id="Path 8" d="M109.788 8.74503C109.87 8.03208 110.212 7.37429 110.747 6.89682C111.283 6.41935 111.976 6.15552 112.694 6.15552C113.411 6.15552 114.104 6.41935 114.64 6.89682C115.176 7.37429 115.517 8.03208 115.6 8.74503C115.504 9.44823 115.157 10.0931 114.623 10.56C114.089 11.0269 113.403 11.2842 112.694 11.2842C111.984 11.2842 111.298 11.0269 110.764 10.56C110.23 10.0931 109.883 9.44823 109.788 8.74503ZM110.193 12.603H115.168V26.8501H110.193V12.603Z" fill="#172B4D"/>
<path id="Path 9" d="M118.796 16.741H117.045V12.6037H118.796V9.14972H123.797V12.6037H126.384V16.741H123.797V21.513C123.797 22.2737 124.125 22.6032 124.963 22.6032H126.409V26.8494H124.253C121.101 26.8494 118.796 25.5299 118.796 21.4428V16.741Z" fill="#172B4D"/>
<path id="Path 10" d="M128.695 8.05981H133.671V14.6325C134.167 13.938 134.827 13.3775 135.593 13.0012C136.36 12.6249 137.207 12.4446 138.06 12.4765C141.309 12.4765 143.361 14.8116 143.361 18.5421V26.8554H138.387V19.2082C138.42 18.8781 138.384 18.5447 138.281 18.2294C138.177 17.9141 138.009 17.624 137.787 17.3778C137.564 17.1316 137.293 16.9348 136.99 16.8001C136.686 16.6654 136.358 16.5958 136.026 16.5958C135.695 16.5958 135.366 16.6654 135.063 16.8001C134.76 16.9348 134.488 17.1316 134.266 17.3778C134.044 17.624 133.875 17.9141 133.772 18.2294C133.669 18.5447 133.633 18.8781 133.666 19.2082V26.8554H128.691L128.695 8.05981Z" fill="#172B4D"/>
</g>
</g>
</svg>
